<mxfile host="app.diagrams.net" modified="2023-06-12T15:21:12.737Z" agent="Mozilla/5.0 (Windows NT 10.0; Win64; x64) AppleWebKit/537.36 (KHTML, like Gecko) Chrome/114.0.0.0 Safari/537.36 Edg/114.0.1823.43" version="21.3.8" etag="cNnFSeb56n6cW4-ZnRu2" type="github">
  <diagram name="第 1 页" id="tH2_ZQxQ58gQ_WFZTfY6">
    <mxGraphModel>
      <root>
        <mxCell id="0" />
        <mxCell id="1" parent="0" />
      </root>
    </mxGraphModel>
  </diagram>
</mxfile>
